<svg viewBox="0 0 228 18" fill="none" xmlns="http://www.w3.org/2000/svg">
<g clip-path="url(#clip0_4_133)">
<rect width="228" height="18" rx="9" fill="#171515"/>
<g opacity="0.8" filter="url(#filter0_d_4_133)">
<path d="M223.213 12.7227C223.365 12.7247 223.506 12.7117 223.637 12.6836C223.745 12.6601 223.849 12.6217 223.948 12.5684C224.052 12.5101 224.121 12.424 224.155 12.3101C224.263 12.3314 224.355 12.35 224.431 12.3659C224.507 12.3769 224.572 12.3877 224.626 12.3983C224.685 12.414 224.737 12.4246 224.78 12.4302C224.823 12.4407 224.875 12.4513 224.934 12.462C224.989 12.4727 225.054 12.486 225.129 12.5019C225.211 12.5129 225.305 12.5291 225.414 12.5504C225.332 12.5394 225.248 12.5457 225.161 12.5694C225.079 12.5932 225 12.6195 224.924 12.6483C224.836 12.682 224.754 12.7231 224.678 12.7718C224.629 12.801 224.571 12.845 224.505 12.9038C224.445 12.9626 224.357 13.0186 224.242 13.0718C224.128 13.125 223.975 13.1702 223.784 13.2075C223.599 13.2398 223.36 13.2491 223.067 13.2353C222.715 13.2207 222.42 13.1597 222.182 13.0521C221.945 12.9396 221.754 12.8054 221.609 12.6494C221.465 12.4884 221.361 12.3156 221.298 12.1308C221.236 11.9461 221.203 11.7741 221.199 11.615C221.196 11.4559 221.25 11.2901 221.361 11.1176C221.472 10.945 221.626 10.788 221.823 10.6464C222.026 10.5049 222.269 10.3913 222.552 10.3056C222.836 10.2149 223.146 10.1717 223.482 10.1762C223.678 10.1787 223.857 10.2035 224.019 10.2503C224.187 10.2923 224.338 10.349 224.473 10.4204C224.613 10.4918 224.734 10.5729 224.836 10.6637C224.938 10.7496 225.024 10.8377 225.093 10.9281C225.162 11.0235 225.221 11.1237 225.268 11.2287C225.31 11.3187 225.344 11.4211 225.37 11.5357C225.396 11.6504 225.402 11.7673 225.39 11.8864C224.977 11.891 224.643 11.894 224.388 11.8956C224.138 11.8973 223.943 11.8972 223.802 11.8954L223.435 11.8905L223.158 11.8869C223.061 11.8856 222.933 11.8864 222.776 11.8893C222.618 11.8922 222.425 11.8971 222.197 11.904C222.222 12.1032 222.288 12.2582 222.395 12.3689C222.507 12.4748 222.626 12.5559 222.75 12.6122C222.89 12.6737 223.044 12.7106 223.213 12.7227ZM222.497 11.3711C222.671 11.3834 222.815 11.3927 222.929 11.3992C223.048 11.4057 223.146 11.412 223.222 11.418C223.303 11.424 223.368 11.4273 223.417 11.428L223.621 11.4307C223.756 11.4325 224.009 11.4283 224.378 11.4183C224.365 11.1994 224.315 11.0322 224.23 10.9167C224.15 10.8014 224.064 10.7157 223.973 10.6598C223.865 10.5988 223.746 10.5624 223.616 10.5507C223.263 10.5511 222.999 10.6147 222.823 10.7416C222.653 10.8686 222.545 11.0785 222.497 11.3711Z" fill="#228FC2"/>
</g>
<g opacity="0.8" filter="url(#filter1_d_4_133)">
<path d="M216.218 10.1803C216.279 10.1937 216.352 10.2035 216.436 10.2097C216.525 10.2159 216.608 10.2195 216.687 10.2205C216.781 10.2218 216.879 10.2218 216.98 10.2206C217.08 10.2194 217.203 10.216 217.348 10.2103C217.465 10.2068 217.61 10.2025 217.783 10.1972C217.957 10.1919 218.149 10.1844 218.361 10.1746C218.283 10.1912 218.216 10.2092 218.16 10.2286C218.104 10.248 218.056 10.2675 218.017 10.2872C217.972 10.3092 217.935 10.3314 217.907 10.3537C217.867 10.3835 217.814 10.4356 217.746 10.5103C217.684 10.5826 217.618 10.6636 217.55 10.7534C217.488 10.8432 217.431 10.9344 217.379 11.027C217.333 11.1196 217.307 11.1986 217.301 11.264C217.294 11.3193 217.288 11.3822 217.281 11.4527C217.275 11.5131 217.268 11.5873 217.262 11.6754C217.255 11.7635 217.248 11.8641 217.241 11.9774C217.644 11.8517 217.956 11.7513 218.174 11.6761C218.393 11.5983 218.553 11.5387 218.654 11.4972C218.771 11.4509 218.842 11.4178 218.864 11.398C218.859 11.3828 218.845 11.3662 218.823 11.3483C218.795 11.3328 218.757 11.3147 218.707 11.2939C218.657 11.273 218.582 11.2494 218.481 11.2229C218.626 11.2323 218.752 11.239 218.858 11.243C218.969 11.2469 219.064 11.2507 219.142 11.2543C219.232 11.258 219.31 11.259 219.377 11.2573C219.449 11.2583 219.539 11.2582 219.645 11.2571C219.829 11.257 220.113 11.257 220.498 11.257C220.123 11.3402 219.827 11.4119 219.608 11.472C219.485 11.5057 219.376 11.537 219.281 11.5659C219.185 11.5974 219.087 11.6302 218.986 11.6641C218.897 11.6931 218.793 11.727 218.675 11.7658C218.563 11.8046 218.451 11.846 218.339 11.8898C218.532 12.036 218.701 12.1566 218.845 12.2517C218.994 12.3469 219.119 12.4241 219.218 12.4834C219.335 12.5529 219.437 12.6084 219.526 12.6499C219.615 12.6889 219.731 12.7332 219.876 12.783C219.998 12.8274 220.156 12.8799 220.351 12.9404C220.551 12.9985 220.793 13.0659 221.076 13.1427C220.931 13.1282 220.792 13.1175 220.658 13.1107C220.524 13.1064 220.41 13.1049 220.315 13.1062C220.198 13.1072 220.092 13.1108 219.997 13.1171C219.896 13.1259 219.784 13.137 219.662 13.1505C219.555 13.1617 219.43 13.1764 219.284 13.1947C219.144 13.2155 218.991 13.2424 218.823 13.2755C218.929 13.2416 219.008 13.2086 219.058 13.1766C219.115 13.1471 219.154 13.1224 219.177 13.1025C219.199 13.0777 219.208 13.0564 219.203 13.0386C219.175 13.0131 219.112 12.9606 219.012 12.8812C218.918 12.8145 218.78 12.7169 218.597 12.5886C218.415 12.4602 218.155 12.2855 217.817 12.0644C217.801 12.0667 217.773 12.0739 217.733 12.0859C217.7 12.0981 217.649 12.1151 217.582 12.1368C217.515 12.1561 217.425 12.1852 217.313 12.224L217.53 12.8881C217.48 12.8976 217.424 12.9056 217.363 12.9124C217.307 12.9192 217.254 12.9248 217.203 12.9292C217.142 12.9359 217.08 12.9402 217.019 12.9419C216.958 12.9436 216.885 12.9477 216.801 12.9541C216.729 12.9582 216.642 12.9634 216.541 12.9696C216.441 12.9783 216.326 12.9882 216.198 12.9991C216.271 12.9774 216.33 12.9517 216.375 12.922C216.42 12.8949 216.456 12.869 216.485 12.8441C216.513 12.8168 216.538 12.7882 216.561 12.7582C216.573 12.7332 216.585 12.6678 216.597 12.5622C216.615 12.4566 216.631 12.3309 216.644 12.1849C216.657 12.0365 216.667 11.8779 216.675 11.7092C216.689 11.5406 216.696 11.382 216.698 11.2334C216.7 11.0823 216.699 10.9513 216.695 10.8404C216.691 10.7269 216.681 10.6538 216.665 10.6208C216.637 10.5801 216.604 10.5369 216.566 10.491C216.533 10.4503 216.486 10.4043 216.425 10.3531C216.37 10.2995 216.301 10.2419 216.218 10.1803Z" fill="#228FC2"/>
</g>
<g opacity="0.8" filter="url(#filter2_d_4_133)">
<path d="M212.605 11.0057C212.628 10.9862 212.642 10.95 212.647 10.8973C212.657 10.8413 212.676 10.7788 212.704 10.7098C212.736 10.6409 212.788 10.5689 212.861 10.4939C212.934 10.4189 213.052 10.3495 213.214 10.2856C213.372 10.2216 213.526 10.184 213.674 10.1728C213.822 10.1615 213.964 10.1683 214.098 10.1932C214.232 10.2181 214.358 10.2561 214.474 10.3071C214.594 10.3583 214.704 10.4142 214.802 10.4749C214.868 10.5154 214.921 10.5739 214.961 10.6504C215 10.7235 215.031 10.8065 215.052 10.8992C215.073 10.992 215.088 11.0896 215.095 11.1921C215.107 11.2913 215.115 11.3888 215.118 11.4846C215.122 11.5771 215.123 11.663 215.122 11.7422C215.125 11.8182 215.133 11.8811 215.146 11.9308C215.163 12.0036 215.194 12.0668 215.238 12.1202C215.282 12.1703 215.331 12.2139 215.384 12.2509C215.438 12.2846 215.491 12.3117 215.545 12.3323C215.599 12.3528 215.646 12.3683 215.686 12.3787C215.713 12.389 215.737 12.3959 215.76 12.3995C215.804 12.4133 215.836 12.4137 215.854 12.4007C215.826 12.4466 215.801 12.4859 215.778 12.5186C215.755 12.5513 215.737 12.5792 215.723 12.6021C215.705 12.6283 215.689 12.6495 215.675 12.6658C215.662 12.6855 215.646 12.7034 215.627 12.7197C215.614 12.736 215.596 12.754 215.573 12.7735C215.55 12.793 215.527 12.8141 215.505 12.837C215.447 12.8197 215.391 12.7991 215.337 12.7753C215.288 12.7516 215.243 12.7295 215.203 12.7092C215.154 12.6854 215.11 12.6617 215.069 12.6381C215.029 12.6144 214.992 12.5875 214.956 12.5573C214.925 12.5305 214.892 12.502 214.856 12.4718C214.825 12.4417 214.799 12.4083 214.777 12.3717C214.749 12.4142 214.683 12.4745 214.579 12.5523C214.479 12.6303 214.348 12.7012 214.185 12.7651C214.023 12.8257 213.834 12.8678 213.618 12.8914C213.406 12.915 213.173 12.8938 212.918 12.8277C212.806 12.7998 212.701 12.7604 212.603 12.7096C212.505 12.6555 212.421 12.5916 212.35 12.518C212.283 12.4445 212.235 12.3613 212.205 12.2685C212.179 12.1724 212.183 12.0667 212.216 11.9516C212.249 11.8364 212.306 11.7398 212.388 11.6616C212.47 11.5834 212.567 11.5203 212.68 11.4723C212.793 11.4242 212.919 11.3879 213.059 11.3634C213.198 11.3388 213.342 11.3225 213.49 11.3146C213.607 11.3128 213.724 11.3193 213.84 11.334C213.939 11.3485 214.042 11.3747 214.149 11.4124C214.257 11.4468 214.348 11.4992 214.423 11.5696C214.421 11.3945 214.414 11.2557 214.402 11.1532C214.394 11.0474 214.386 10.9664 214.378 10.9102C214.361 10.8439 214.346 10.7975 214.333 10.7709C214.311 10.7475 214.286 10.7207 214.26 10.6907C214.238 10.6607 214.209 10.6339 214.173 10.6103C214.138 10.5834 214.093 10.5613 214.039 10.5441C213.986 10.5269 213.923 10.5195 213.851 10.5218C213.775 10.5241 213.714 10.5382 213.669 10.564C213.623 10.5898 213.587 10.6207 213.56 10.6567C213.537 10.6894 213.523 10.7255 213.518 10.7651C213.513 10.8047 213.515 10.8394 213.523 10.8692C213.532 10.8891 213.545 10.9108 213.563 10.9341C213.58 10.9542 213.605 10.9759 213.636 10.9995C213.667 11.023 213.71 11.0434 213.763 11.0606C213.66 11.0691 213.568 11.0762 213.487 11.0817C213.406 11.0839 213.336 11.088 213.278 11.0938C213.21 11.0995 213.152 11.1037 213.102 11.1064C213.053 11.109 212.995 11.1148 212.927 11.1239C212.869 11.1297 212.797 11.137 212.711 11.1458C212.626 11.1546 212.527 11.1665 212.414 11.1815C212.442 11.1587 212.467 11.1376 212.489 11.1181C212.512 11.0953 212.533 11.0757 212.551 11.0595C212.569 11.0399 212.587 11.022 212.605 11.0057ZM213.608 11.6083C213.527 11.6106 213.446 11.6244 213.365 11.6497C213.284 11.6718 213.211 11.7055 213.148 11.7509C213.084 11.793 213.03 11.8434 212.984 11.9023C212.943 11.9579 212.922 12.0203 212.921 12.0897C212.92 12.159 212.942 12.2204 212.986 12.2738C213.035 12.324 213.097 12.3661 213.173 12.4001C213.253 12.4342 213.338 12.4551 213.428 12.4629C213.522 12.4707 213.614 12.4653 213.705 12.4467C213.79 12.4247 213.871 12.3895 213.948 12.341C214.025 12.2891 214.091 12.2339 214.146 12.1751C214.201 12.1131 214.24 12.0525 214.263 11.9934C214.286 11.931 214.289 11.8798 214.272 11.84C214.237 11.7537 214.157 11.6932 214.032 11.6585C213.906 11.6205 213.765 11.6038 213.608 11.6083Z" fill="#228FC2"/>
</g>
<g opacity="0.8" filter="url(#filter3_d_4_133)">
<path d="M152.982 1.2426C154.603 1.37123 156.02 1.47968 157.236 1.56794C158.453 1.64524 159.441 1.71148 160.2 1.76664L162.404 1.92661C162.962 1.95611 163.646 2.00028 164.456 2.05912C165.166 2.1106 166.027 2.17312 167.04 2.24667C168.053 2.32022 169.217 2.41028 170.533 2.51685C170.916 2.85302 171.35 3.18738 171.835 3.51995C172.372 3.84524 172.834 4.13763 173.223 4.39711C173.71 4.70777 174.197 5.00199 174.686 5.27979C175.175 5.55758 175.762 5.89202 176.447 6.28312C177.034 6.61209 177.743 7.01599 178.574 7.4948C179.405 7.96267 180.385 8.50182 181.511 9.11226C182.093 8.81309 182.622 8.53764 183.099 8.2859C183.626 8.03784 184.075 7.8226 184.444 7.64019C184.867 7.4286 185.212 7.23339 185.48 7.05459C185.747 6.87578 186.043 6.65499 186.368 6.39221C186.639 6.16958 186.938 5.89949 187.267 5.58194C187.646 5.26807 188.029 4.89942 188.417 4.476C189.885 4.58264 191.202 4.67826 192.367 4.76284C193.532 4.84742 194.546 4.91549 195.408 4.96706C196.37 5.03693 197.232 5.09397 197.992 5.13817C198.803 5.19701 199.892 5.26512 201.262 5.34251C202.428 5.40518 203.974 5.50091 205.9 5.6297C207.877 5.75121 210.31 5.90034 213.2 6.07709C212.124 6.16419 211.251 6.266 210.581 6.38253C209.962 6.49177 209.471 6.59378 209.107 6.68854C208.692 6.80154 208.429 6.9201 208.318 7.04421C208.208 7.1464 208.089 7.39102 207.959 7.77806C207.88 8.16877 207.769 8.63433 207.628 9.17475C207.539 9.70788 207.446 10.2794 207.351 10.8892C207.307 11.5027 207.29 12.0851 207.301 12.6366C207.312 13.188 207.353 13.6701 207.425 14.0828C207.548 14.4882 207.732 14.7549 207.978 14.8829C208.323 15.0401 208.793 15.2284 209.388 15.4478C209.934 15.6416 210.63 15.8684 211.477 16.1281C212.375 16.3915 213.549 16.697 215 17.0447C212.669 16.8974 210.717 16.7723 209.146 16.6692C207.626 16.5699 206.359 16.4889 205.345 16.4263C204.179 16.3527 203.242 16.2901 202.533 16.2386C201.773 16.1835 200.734 16.1135 199.416 16.0289C198.251 15.9553 196.705 15.8595 194.778 15.7417C192.853 15.6129 190.369 15.4546 187.328 15.2668C188.049 15.143 188.721 15.0156 189.341 14.8844C189.962 14.7532 190.48 14.6312 190.895 14.5182C191.414 14.3906 191.856 14.263 192.222 14.1354C192.591 13.953 192.897 13.5952 193.14 13.0622C193.377 12.6058 193.577 11.9431 193.742 11.074C193.908 10.194 193.994 9.00535 194.001 7.50807C193.014 7.77782 192.128 8.05491 191.344 8.33937C190.611 8.61654 189.956 8.87184 189.379 9.10527C188.748 9.37885 188.169 9.64515 187.641 9.90416C187.112 10.1741 186.555 10.4751 185.971 10.8072C185.441 11.0881 184.806 11.4219 184.065 11.8087C183.375 12.1991 182.58 12.6259 181.681 13.0893L178.791 12.9125C178.418 12.4449 178.041 12.0211 177.662 11.6411C177.283 11.2501 176.9 10.914 176.513 10.6326C176.078 10.3037 175.642 10.0077 175.202 9.7445C174.713 9.47767 174.174 9.17976 173.587 8.8508C173.047 8.56933 172.384 8.23484 171.598 7.84734C170.862 7.46352 170.002 7.03216 169.018 6.55327C168.431 7.63393 168.061 8.52116 167.909 9.21495C167.757 9.89778 167.718 10.4346 167.792 10.8254C167.86 11.2929 167.987 11.638 168.175 11.8609C168.465 12.0692 168.931 12.3123 169.573 12.5901C170.116 12.8278 170.858 13.1185 171.801 13.4623C172.795 13.7987 174.065 14.1883 175.611 14.631C174.497 14.5501 173.332 14.4655 172.116 14.3772C170.901 14.289 169.786 14.2135 168.772 14.1509C167.556 14.0736 166.365 13.9927 165.2 13.9081C163.984 13.8308 162.564 13.7443 160.942 13.6485C159.522 13.5674 157.823 13.4662 155.846 13.3446C153.869 13.2231 151.587 13.096 149 12.9632C150.125 12.8907 151.048 12.809 151.767 12.7181C152.488 12.6162 153.055 12.5197 153.469 12.4286C153.986 12.323 154.376 12.2082 154.639 12.0841C154.798 12.0075 154.938 11.825 155.061 11.5365C155.235 11.2518 155.387 10.8995 155.52 10.4796C155.703 10.0633 155.839 9.59413 155.927 9.07195C156.067 8.55345 156.181 8.02763 156.271 7.4945C156.412 6.95409 156.527 6.42827 156.615 5.91705C156.704 5.39487 156.763 4.92563 156.793 4.50933C156.875 4.08575 156.926 3.73154 156.947 3.4467C156.968 3.16186 156.981 2.9811 156.986 2.90441C156.846 2.72905 156.63 2.54817 156.338 2.36178C156.095 2.20097 155.701 2.02365 155.155 1.82983C154.609 1.636 153.885 1.44026 152.982 1.2426Z" fill="#AF4747"/>
</g>
<g opacity="0.8" filter="url(#filter4_d_4_133)">
<path d="M150.554 3.26417C150.644 3.26889 150.742 3.27194 150.847 3.27332C150.937 3.27452 151.04 3.27763 151.154 3.28267C151.273 3.28423 151.397 3.28234 151.526 3.27698C151.411 3.31428 151.31 3.36942 151.224 3.44239C151.137 3.51536 151.067 3.58855 151.013 3.66196C150.946 3.7493 150.89 3.84032 150.845 3.93502C150.821 3.99117 150.8 4.09148 150.784 4.23596C150.768 4.37691 150.754 4.5426 150.742 4.73302C150.735 4.92349 150.73 5.12459 150.727 5.3363C150.724 5.54802 150.724 5.75094 150.726 5.94507C150.728 6.13568 150.733 6.30514 150.741 6.45347C150.748 6.60179 150.759 6.70604 150.772 6.76621C150.79 6.83704 150.813 6.90439 150.841 6.96828C150.864 7.02505 150.894 7.08368 150.932 7.14417C150.969 7.20113 151.016 7.24763 151.073 7.28367L150.341 7.51754C150.303 7.47822 150.273 7.43723 150.249 7.39458C150.226 7.35545 150.207 7.31991 150.194 7.28797C150.175 7.2489 150.164 7.21346 150.159 7.18164C150.15 7.13917 150.141 7.09317 150.133 7.04365C150.124 6.9906 150.112 6.94104 150.099 6.89498C150.09 6.84545 150.083 6.80478 150.079 6.77296C150.075 6.74114 150.075 6.72173 150.08 6.71474C150.085 6.70775 150.055 6.73913 149.993 6.80888C149.93 6.87511 149.836 6.95328 149.711 7.04339C149.59 7.13003 149.442 7.21454 149.264 7.2969C149.087 7.37573 148.888 7.42429 148.669 7.44258C148.445 7.4608 148.238 7.42631 148.048 7.33912C147.864 7.25198 147.706 7.13167 147.574 6.97819C147.443 6.82118 147.343 6.64163 147.274 6.43957C147.21 6.23403 147.187 6.0255 147.204 5.81398C147.215 5.67296 147.26 5.54826 147.337 5.43988C147.415 5.32797 147.512 5.23219 147.627 5.15254C147.747 5.06942 147.877 5.00055 148.016 4.94591C148.159 4.88781 148.298 4.84023 148.432 4.80317C148.571 4.76618 148.7 4.73964 148.819 4.72357C148.939 4.7075 149.034 4.6964 149.106 4.69029C149.191 4.68789 149.289 4.69976 149.398 4.7259C149.493 4.74833 149.602 4.78506 149.726 4.83609C149.854 4.88718 149.995 4.96317 150.151 5.06404C150.127 4.71081 150.105 4.42818 150.084 4.21615C150.063 4.00059 150.041 3.8362 150.019 3.72297C149.997 3.58858 149.977 3.49655 149.958 3.4469C149.935 3.4113 149.904 3.37561 149.867 3.33982C149.834 3.31115 149.791 3.28236 149.739 3.25344C149.692 3.22106 149.635 3.1956 149.569 3.17708C149.692 3.19636 149.811 3.21027 149.926 3.21884C150.04 3.2274 150.145 3.23584 150.24 3.24415C150.349 3.25265 150.454 3.25933 150.554 3.26417ZM148.734 5.21477C148.643 5.23827 148.569 5.27964 148.511 5.33888C148.458 5.39817 148.414 5.46994 148.379 5.55419C148.345 5.63491 148.32 5.72281 148.304 5.81789C148.294 5.90951 148.285 5.99939 148.279 6.08754C148.278 6.17223 148.277 6.24985 148.276 6.32042C148.275 6.391 148.275 6.44392 148.274 6.47921C148.274 6.50038 148.278 6.53926 148.287 6.59584C148.301 6.64896 148.328 6.70579 148.371 6.76634C148.413 6.82336 148.472 6.87531 148.547 6.92219C148.628 6.96912 148.734 6.99347 148.868 6.99523C148.978 6.98962 149.095 6.96292 149.219 6.91516C149.329 6.87426 149.454 6.80885 149.594 6.71892C149.738 6.62554 149.892 6.4917 150.056 6.3174C150.048 6.20436 150.042 6.11076 150.039 6.0366C150.04 5.9625 150.038 5.90248 150.034 5.85655C150.03 5.80356 150.028 5.76118 150.028 5.72943L150.029 5.65003C150.03 5.62886 150.03 5.60593 150.03 5.58123C150.031 5.55653 150.033 5.53362 150.038 5.51252C149.906 5.44019 149.787 5.37863 149.683 5.32785C149.584 5.27361 149.484 5.23347 149.385 5.20746C149.29 5.17797 149.19 5.1643 149.085 5.16645C148.985 5.16513 148.868 5.18124 148.734 5.21477Z" fill="#228FC2"/>
</g>
<g opacity="0.8" filter="url(#filter5_d_4_133)">
<path d="M141.51 7.39023C141.545 7.26236 141.571 7.14992 141.586 7.05291C141.607 6.95207 141.622 6.86867 141.633 6.8027C141.643 6.72506 141.649 6.65903 141.65 6.60459C141.646 6.53843 141.642 6.46061 141.638 6.37112C141.639 6.27781 141.636 6.18637 141.628 6.09682C141.624 6.00344 141.618 5.9217 141.609 5.85159C141.601 5.77759 141.589 5.72494 141.575 5.69365C141.557 5.66229 141.531 5.6289 141.498 5.59346C141.431 5.52648 141.334 5.46103 141.206 5.39712C141.316 5.37913 141.41 5.36481 141.486 5.35415C141.568 5.33967 141.635 5.32695 141.688 5.31598C141.746 5.30118 141.796 5.28824 141.839 5.27714C141.878 5.26598 141.924 5.25492 141.976 5.24395C142.02 5.23674 142.072 5.22771 142.135 5.21687C142.197 5.20602 142.269 5.19336 142.351 5.17888L142.322 5.70932C142.477 5.56359 142.635 5.45483 142.794 5.38304C142.953 5.31125 143.102 5.26071 143.241 5.23144C143.399 5.19464 143.555 5.17725 143.709 5.17927C143.9 5.18957 144.077 5.21717 144.239 5.26209C144.406 5.30706 144.549 5.3595 144.668 5.4194C144.792 5.47547 144.892 5.53512 144.968 5.59834C145.043 5.66155 145.088 5.71659 145.102 5.76343C145.157 5.91582 145.17 6.05598 145.139 6.18391C145.109 6.30795 145.069 6.42992 145.02 6.54982C144.975 6.6659 144.935 6.78203 144.9 6.89824C144.87 7.0145 144.88 7.14102 144.931 7.2778C144.95 7.31304 144.968 7.34829 144.987 7.38353C145.006 7.41489 145.029 7.44631 145.058 7.47779C145.086 7.50928 145.119 7.53499 145.157 7.55493C145.105 7.55035 145.052 7.54771 144.999 7.54702C144.947 7.54244 144.899 7.53792 144.856 7.53346C144.803 7.52888 144.755 7.52436 144.712 7.51991C144.664 7.51539 144.6 7.51259 144.518 7.51152C144.38 7.50969 144.164 7.51269 143.872 7.5205C143.916 7.43942 143.95 7.37182 143.975 7.3177C144.004 7.25976 144.029 7.21342 144.049 7.17868C144.068 7.13616 144.083 7.1033 144.093 7.0801C144.152 6.9681 144.187 6.84024 144.199 6.6965C144.215 6.55283 144.205 6.40687 144.169 6.25862C144.155 6.20789 144.132 6.14731 144.099 6.07688C144.067 6.00645 144.022 5.93781 143.965 5.87096C143.914 5.80417 143.85 5.74694 143.774 5.69927C143.702 5.65167 143.619 5.62335 143.523 5.61431C143.428 5.60527 143.32 5.62329 143.199 5.66837C143.084 5.71352 142.958 5.79741 142.822 5.92007C142.72 6.02372 142.64 6.15099 142.58 6.30186C142.526 6.42948 142.488 6.59036 142.466 6.78451C142.445 6.97478 142.47 7.19872 142.544 7.45634C142.477 7.44768 142.414 7.44297 142.357 7.44222C142.3 7.43757 142.252 7.43305 142.213 7.42866C142.166 7.42414 142.123 7.41969 142.084 7.41529C142.041 7.41473 141.993 7.41215 141.941 7.40757C141.893 7.40694 141.833 7.40615 141.761 7.4052C141.689 7.40037 141.606 7.39538 141.51 7.39023Z" fill="#228FC2"/>
</g>
<g opacity="0.8" filter="url(#filter6_d_4_133)">
<path d="M102.706 2.46371C105.786 2.54294 108.374 2.60923 110.469 2.66258C112.625 2.70387 114.412 2.74029 115.829 2.77184C117.431 2.80582 118.787 2.82368 119.896 2.82541C121.006 2.82714 122.516 2.81483 124.427 2.78848C126.029 2.77094 128.156 2.74099 130.807 2.69861C133.519 2.64417 136.879 2.57249 140.886 2.48357C139.465 2.76114 138.353 3.017 137.548 3.25116C136.806 3.47325 136.218 3.66517 135.784 3.82693C135.288 4.02651 134.947 4.19592 134.761 4.33516C134.636 4.46233 134.755 4.78595 135.118 5.306C135.48 5.82605 135.996 6.44474 136.665 7.16204C137.333 7.86647 138.063 8.62323 138.854 9.43232C139.644 10.2285 140.436 10.9797 141.228 11.6857C142.02 12.3789 142.721 12.9742 143.33 13.4718C144.002 13.9573 144.491 14.2471 144.798 14.3413C145.719 14.624 146.302 14.812 146.547 14.9054C146.793 14.9859 147.223 15.0624 147.838 15.135C148.084 15.164 148.485 15.2079 149.038 15.2667C149.531 15.3247 150.177 15.3976 150.977 15.4855C151.839 15.5741 152.916 15.6785 154.209 15.7985C151.805 15.7926 149.74 15.7848 148.015 15.7749C146.289 15.7522 144.872 15.74 143.763 15.7382C142.468 15.7341 141.359 15.7323 140.435 15.733C139.51 15.7209 138.401 15.7191 137.107 15.7279C135.997 15.739 134.549 15.7457 132.761 15.7479C131.035 15.7509 129.002 15.7499 126.66 15.7448C127.894 15.5807 128.883 15.4327 129.624 15.3008C130.427 15.1568 131.045 15.0361 131.478 14.9388C131.972 14.8165 132.313 14.705 132.499 14.6044C132.624 14.4901 132.718 14.3175 132.783 14.0864C132.847 13.8812 132.851 13.6107 132.794 13.275C132.737 12.9265 132.589 12.4736 132.349 11.9166L108.033 12.118C107.414 12.3288 106.949 12.5159 106.639 12.6793C106.329 12.8298 106.111 12.9622 105.986 13.0765C105.8 13.2157 105.737 13.3308 105.797 13.4218C105.919 13.5265 106.133 13.6517 106.439 13.7974C106.746 13.9302 107.175 14.0905 107.727 14.2781C108.341 14.4537 109.232 14.6651 110.4 14.9123C108.859 14.8791 107.288 14.852 105.686 14.8309C104.084 14.8098 102.605 14.7968 101.249 14.7918C99.6467 14.7836 98.0752 14.7757 96.5344 14.7683C94.9937 14.7609 93.2373 14.7571 91.2651 14.7569C89.6009 14.7607 87.6594 14.7674 85.4406 14.7768C83.1602 14.7725 80.7257 14.7791 78.1369 14.7965C79.7411 14.6631 81.0988 14.5264 82.21 14.3864C83.3214 14.2336 84.2478 14.0912 84.9891 13.9593C85.8538 13.8161 86.5952 13.6777 87.2133 13.5441C87.6464 13.421 88.513 13.1362 89.8131 12.6895C91.1134 12.23 92.5689 11.6889 94.1796 11.066C95.8518 10.4439 97.5863 9.77758 99.383 9.06698C101.241 8.35719 102.914 7.69005 104.402 7.06555C105.889 6.42817 107.098 5.8773 108.029 5.41293C108.959 4.94856 109.426 4.64553 109.427 4.50386C109.306 4.3348 109.001 4.14399 108.511 3.93142C108.082 3.74542 107.406 3.53042 106.485 3.28641C105.626 3.04321 104.366 2.76898 102.706 2.46371ZM131.259 10.4723C130.895 10.0167 130.561 9.62582 130.258 9.29977C129.954 8.96084 129.711 8.68068 129.529 8.45929C129.286 8.19845 129.104 7.97062 128.983 7.77581C128.801 7.59306 128.588 7.35838 128.346 7.07178C128.102 6.82382 127.798 6.5171 127.433 6.1516C127.13 5.77403 126.735 5.32441 126.249 4.80273C122.717 6.22474 119.96 7.32846 117.978 8.1139C116.057 8.88728 114.663 9.45504 113.795 9.81718C112.742 10.2413 112.153 10.4912 112.029 10.5668L131.259 10.4723Z" fill="#AF4747"/>
</g>
<g opacity="0.8" filter="url(#filter7_d_4_133)">
<path d="M72.0336 12.1734C72.1534 12.1673 72.255 12.1609 72.3384 12.1543C72.427 12.1478 72.5 12.141 72.5573 12.1341C72.6251 12.1272 72.6824 12.1203 72.7294 12.1132C72.7763 12.11 72.8284 12.1029 72.8858 12.0921C72.938 12.0851 72.9954 12.0762 73.058 12.0655C73.1259 12.051 73.199 12.0346 73.2773 12.0164L73.2208 12.7499C73.3371 12.6165 73.4712 12.5161 73.623 12.4488C73.7749 12.3775 73.9188 12.3254 74.0546 12.2925C74.2165 12.2523 74.3782 12.2294 74.5397 12.2238C74.7062 12.2298 74.8595 12.2511 74.9995 12.2877C75.1189 12.3201 75.2379 12.3698 75.3568 12.4369C75.4809 12.5041 75.5759 12.6017 75.6419 12.7297C75.8206 12.5972 75.9964 12.4954 76.1691 12.4245C76.3471 12.3497 76.504 12.294 76.6399 12.2572C76.8018 12.217 76.9531 12.1939 77.0937 12.188C77.2811 12.1867 77.4526 12.212 77.6081 12.2642C77.7688 12.3164 77.9085 12.3819 78.0272 12.4605C78.146 12.5353 78.2412 12.6156 78.313 12.7013C78.3848 12.7832 78.4255 12.8551 78.4351 12.9169C78.4496 13.0018 78.4403 13.1116 78.4073 13.246C78.3744 13.3767 78.3362 13.5111 78.2927 13.6493C78.2493 13.7836 78.2086 13.9083 78.1706 14.0235C78.1379 14.1348 78.1239 14.2136 78.1285 14.2599C78.1436 14.2987 78.1794 14.3454 78.2359 14.4001C78.2874 14.4471 78.3621 14.5059 78.4601 14.5765C78.5633 14.6434 78.7107 14.7224 78.9021 14.8136C78.7356 14.8076 78.5873 14.8018 78.4572 14.7962C78.3323 14.7907 78.2257 14.7835 78.1373 14.7746C78.0333 14.7656 77.9423 14.7586 77.8643 14.7537C77.8018 14.7529 77.7264 14.748 77.638 14.7391C77.5652 14.7343 77.4689 14.7273 77.3493 14.718C77.2349 14.7088 77.1023 14.6993 76.9514 14.6896C77.0088 14.6788 77.056 14.6582 77.0928 14.6279C77.1297 14.5937 77.1614 14.5613 77.1878 14.5309C77.2143 14.4927 77.2357 14.4505 77.2519 14.4045C77.2629 14.3661 77.2741 14.3046 77.2856 14.2199C77.2971 14.1353 77.3062 14.039 77.3128 13.9312C77.3247 13.8234 77.3314 13.7098 77.3329 13.5904C77.3397 13.471 77.3412 13.3573 77.3374 13.2493C77.3337 13.1413 77.3245 13.0429 77.3101 12.9541C77.2956 12.8652 77.2757 12.7975 77.2503 12.7509C77.2299 12.716 77.1938 12.6885 77.142 12.6686C77.0903 12.6447 77.0306 12.6305 76.963 12.6257C76.8954 12.6171 76.8277 12.6182 76.7599 12.6288C76.6922 12.6356 76.6321 12.6503 76.5797 12.6727C76.5325 12.6991 76.4696 12.7349 76.3909 12.7801C76.3227 12.8216 76.2334 12.8782 76.1232 12.95C76.0129 13.0218 75.8737 13.1125 75.7057 13.222C75.6869 13.4646 75.6713 13.661 75.6589 13.8111C75.6517 13.9575 75.6451 14.0692 75.6388 14.1462C75.6324 14.2386 75.629 14.3022 75.6285 14.3369C75.6229 14.3676 75.6251 14.3966 75.6352 14.4237C75.6448 14.4816 75.6754 14.536 75.7268 14.5868C75.6644 14.5744 75.5969 14.5658 75.5241 14.561C75.4564 14.5562 75.394 14.5516 75.3368 14.5469C75.2692 14.5422 75.2016 14.5394 75.1339 14.5385C75.0766 14.5377 75.0141 14.5388 74.9464 14.5418C74.8891 14.5449 74.8188 14.5498 74.7354 14.5564C74.6521 14.5591 74.5609 14.5637 74.4619 14.5701C74.5038 14.5514 74.5379 14.5287 74.5643 14.5021C74.5907 14.4754 74.6118 14.4507 74.6278 14.4278C74.6489 14.4011 74.6649 14.3762 74.6756 14.3532C74.6811 14.3302 74.6923 14.2744 74.709 14.186C74.7259 14.0937 74.7377 13.9859 74.7445 13.8627C74.7514 13.7394 74.7531 13.6103 74.7496 13.4754C74.7463 13.3366 74.7297 13.2111 74.6999 13.0989C74.6702 12.9829 74.622 12.8878 74.5553 12.8137C74.4938 12.7397 74.411 12.7058 74.3068 12.7122C74.1817 12.7182 74.0539 12.7397 73.9233 12.7765C73.8135 12.8059 73.6958 12.8506 73.5701 12.9106C73.4443 12.9706 73.3261 13.0519 73.2155 13.1545C73.1908 13.4433 73.1748 13.6724 73.1674 13.8419C73.1651 14.0115 73.166 14.1406 73.1701 14.2293C73.1739 14.3334 73.1782 14.4048 73.1829 14.4434C73.1877 14.4705 73.2004 14.4976 73.2208 14.5249C73.2361 14.5482 73.254 14.5754 73.2744 14.6065C73.3 14.6377 73.3283 14.667 73.3592 14.6943L72.1183 14.6317C72.1602 14.6169 72.1969 14.5981 72.2284 14.5754C72.26 14.5488 72.2864 14.5222 72.3076 14.4955C72.3288 14.4649 72.35 14.4344 72.3712 14.4038C72.3872 14.377 72.4011 14.3136 72.4128 14.2136C72.4297 14.1136 72.4443 13.9962 72.4565 13.8615C72.4687 13.7229 72.4784 13.5784 72.4856 13.4282C72.498 13.2742 72.5051 13.1317 72.5069 13.0007C72.5138 12.8658 72.5179 12.7522 72.5192 12.6597C72.5204 12.5634 72.5186 12.5055 72.5136 12.4862C72.4985 12.4474 72.4704 12.4066 72.4293 12.3636C72.3933 12.3323 72.3443 12.2989 72.2823 12.2634C72.2203 12.2241 72.1374 12.1941 72.0336 12.1734Z" fill="#228FC2"/>
</g>
<g opacity="0.8" filter="url(#filter8_d_4_133)">
<path d="M67.5319 12.9651C67.5603 12.9433 67.5777 12.9027 67.5841 12.8435C67.5962 12.7807 67.6196 12.7106 67.6544 12.6332C67.6947 12.5559 67.7605 12.4752 67.8515 12.3912C67.9426 12.3072 68.0899 12.2294 68.2932 12.158C68.491 12.0865 68.6827 12.0445 68.8685 12.0322C69.0542 12.0198 69.2312 12.0277 69.3995 12.0558C69.5679 12.084 69.7247 12.1268 69.8702 12.1843C70.0213 12.2419 70.1582 12.3049 70.281 12.3732C70.3648 12.4188 70.4314 12.4845 70.4808 12.5704C70.5304 12.6526 70.5685 12.7457 70.5953 12.8498C70.622 12.9539 70.6402 13.0635 70.65 13.1785C70.6654 13.2899 70.6752 13.3994 70.6794 13.5069C70.6836 13.6107 70.6852 13.7071 70.684 13.796C70.6885 13.8813 70.6988 13.9518 70.715 14.0076C70.7364 14.0895 70.7748 14.1604 70.8302 14.2204C70.8857 14.2767 70.9469 14.3257 71.0139 14.3674C71.0809 14.4053 71.1479 14.4358 71.2151 14.4589C71.2823 14.4821 71.3411 14.4995 71.3915 14.5113C71.4251 14.5229 71.456 14.5307 71.484 14.5348C71.54 14.5503 71.5794 14.5508 71.6021 14.5363C71.5677 14.5877 71.5362 14.6318 71.5076 14.6685C71.479 14.7052 71.4561 14.7364 71.4388 14.7621C71.416 14.7914 71.396 14.8152 71.3789 14.8335C71.3617 14.8556 71.3418 14.8757 71.319 14.8939C71.3019 14.9122 71.2792 14.9323 71.2508 14.9542C71.2223 14.976 71.1939 14.9997 71.1655 15.0253C71.0926 15.0058 71.0226 14.9826 70.9555 14.9558C70.894 14.9291 70.8381 14.9042 70.7878 14.8813C70.7263 14.8546 70.6704 14.8279 70.6202 14.8013C70.5699 14.7747 70.5225 14.7444 70.478 14.7105C70.439 14.6803 70.3972 14.6483 70.3527 14.6143C70.3138 14.5805 70.2805 14.543 70.253 14.5019C70.2186 14.5496 70.1362 14.6171 70.0057 14.7043C69.8808 14.7916 69.7167 14.8709 69.5133 14.9424C69.31 15.0101 69.0732 15.057 68.803 15.0831C68.5383 15.1093 68.2462 15.085 67.9267 15.0104C67.7865 14.9789 67.655 14.9346 67.532 14.8774C67.4091 14.8165 67.3032 14.7447 67.2143 14.662C67.1311 14.5793 67.0704 14.4859 67.0325 14.3816C67.0001 14.2737 67.0045 14.1552 67.0456 14.026C67.0866 13.8969 67.1584 13.7885 67.2607 13.7009C67.3631 13.6133 67.4849 13.5426 67.6262 13.4889C67.7675 13.4352 67.9255 13.3946 68.1002 13.3673C68.2749 13.3399 68.455 13.3219 68.6407 13.3133C68.7869 13.3115 68.933 13.319 69.079 13.3357C69.2025 13.3522 69.3315 13.3817 69.4659 13.4242C69.6003 13.463 69.7148 13.522 69.8094 13.601C69.8063 13.4046 69.7971 13.2488 69.7818 13.1337C69.7721 13.015 69.762 12.9241 69.7516 12.8609C69.7301 12.7865 69.7111 12.7344 69.6946 12.7046C69.6669 12.6782 69.6363 12.6482 69.603 12.6144C69.5754 12.5807 69.5392 12.5506 69.4946 12.524C69.45 12.4938 69.3941 12.469 69.3269 12.4496C69.2596 12.4301 69.181 12.4217 69.091 12.4242C68.9954 12.4267 68.9193 12.4423 68.8627 12.4712C68.8061 12.5001 68.7606 12.5347 68.7263 12.5751C68.6977 12.6117 68.6803 12.6523 68.6741 12.6967C68.6679 12.7411 68.6702 12.78 68.681 12.8135C68.692 12.8359 68.7085 12.8602 68.7307 12.8864C68.7529 12.9089 68.7835 12.9334 68.8225 12.9599C68.8615 12.9863 68.9146 13.0093 68.9819 13.0287C68.8524 13.0381 68.737 13.0459 68.6357 13.0519C68.5345 13.0543 68.4473 13.0587 68.3741 13.0652C68.2896 13.0715 68.2165 13.0761 68.1546 13.0789C68.0927 13.0818 68.0195 13.0883 67.935 13.0983C67.8618 13.1047 67.7718 13.1128 67.6648 13.1225C67.5578 13.1322 67.4339 13.1454 67.2931 13.1621C67.3272 13.1366 67.3584 13.1129 67.3869 13.0911C67.4153 13.0655 67.4409 13.0436 67.4636 13.0254C67.4864 13.0034 67.5092 12.9834 67.5319 12.9651ZM68.7882 13.6432C68.6869 13.6455 68.5855 13.6609 68.4839 13.6892C68.3824 13.7138 68.2919 13.7515 68.2125 13.8024C68.1332 13.8495 68.065 13.906 68.0079 13.972C67.9564 14.0343 67.9302 14.1044 67.9292 14.1822C67.9282 14.26 67.9554 14.3289 68.0108 14.3889C68.0719 14.4453 68.15 14.4927 68.2451 14.531C68.3458 14.5694 68.4523 14.593 68.5647 14.6019C68.6827 14.6109 68.798 14.605 68.9108 14.5842C69.0179 14.5597 69.1197 14.5203 69.216 14.466C69.3123 14.4079 69.3947 14.346 69.463 14.2802C69.5314 14.2107 69.5801 14.1428 69.6091 14.0765C69.6381 14.0064 69.6417 13.949 69.6198 13.9043C69.5761 13.8073 69.4758 13.7393 69.3188 13.7002C69.1619 13.6574 68.9851 13.6384 68.7882 13.6432Z" fill="#228FC2"/>
</g>
<g opacity="0.8" filter="url(#filter9_d_4_133)">
<path d="M63.5226 14.5891C63.7111 14.5916 63.8864 14.5789 64.0484 14.5511C64.1834 14.528 64.3119 14.4898 64.4338 14.4366C64.5626 14.3785 64.6479 14.2924 64.6898 14.1784C64.8242 14.2001 64.9385 14.219 65.0326 14.2352C65.1267 14.2464 65.2074 14.2575 65.2746 14.2683C65.3485 14.2842 65.4123 14.295 65.4661 14.3007C65.5199 14.3114 65.5837 14.3222 65.6577 14.3332C65.7249 14.344 65.8055 14.3575 65.8996 14.3737C66.0005 14.385 66.1181 14.4015 66.2526 14.4232C66.1517 14.4119 66.0472 14.418 65.9391 14.4415C65.8378 14.4651 65.7398 14.4912 65.6451 14.5199C65.5369 14.5533 65.4353 14.5943 65.3404 14.6429C65.2794 14.672 65.2081 14.7159 65.1265 14.7746C65.0516 14.8335 64.9431 14.8893 64.801 14.9423C64.6588 14.9952 64.4697 15.0401 64.2334 15.0768C64.004 15.1087 63.7076 15.1172 63.344 15.1025C62.9064 15.0867 62.5402 15.0246 62.2453 14.9161C61.9504 14.8026 61.7131 14.6674 61.5333 14.5105C61.3536 14.3487 61.2245 14.1751 61.1461 13.9897C61.0677 13.8043 61.0262 13.6318 61.0216 13.4723C61.017 13.3128 61.0831 13.1467 61.2201 12.9741C61.3571 12.8015 61.5478 12.6445 61.7921 12.5032C62.0432 12.362 62.3444 12.2489 62.6957 12.1638C63.0472 12.0738 63.4316 12.0315 63.8492 12.037C64.0916 12.0402 64.3135 12.0655 64.515 12.113C64.7232 12.1556 64.911 12.2129 65.0785 12.2849C65.2526 12.357 65.4031 12.4387 65.5299 12.53C65.6567 12.6164 65.7633 12.705 65.8497 12.7959C65.936 12.8917 66.0087 12.9923 66.068 13.0977C66.1207 13.1881 66.1631 13.2908 66.1952 13.4059C66.2274 13.5209 66.236 13.6381 66.2209 13.7575C65.709 13.7608 65.2947 13.7628 64.9782 13.7636C64.6683 13.7645 64.4259 13.7638 64.2508 13.7615L63.7962 13.7555L63.4528 13.751C63.3315 13.7494 63.1733 13.7498 62.9779 13.7522C62.7825 13.7546 62.5434 13.7589 62.2604 13.7652C62.2915 13.9649 62.3736 14.1205 62.5068 14.2319C62.6469 14.3383 62.794 14.42 62.9482 14.4769C63.1225 14.539 63.3139 14.5764 63.5226 14.5891ZM62.6312 13.2319C62.8465 13.2447 63.0249 13.2545 63.1662 13.2613C63.3143 13.2683 63.4355 13.2749 63.5297 13.2811C63.6306 13.2874 63.7114 13.2909 63.772 13.2917L64.0245 13.2951C64.1929 13.2973 64.5061 13.2939 64.9643 13.285C64.9469 13.0655 64.8852 12.8978 64.7789 12.7818C64.6794 12.6658 64.5728 12.5797 64.459 12.5234C64.3251 12.4619 64.1774 12.425 64.016 12.4129C63.5782 12.4121 63.2507 12.4751 63.0335 12.6018C62.823 12.7286 62.6889 12.9386 62.6312 13.2319Z" fill="#228FC2"/>
</g>
<g opacity="0.8" filter="url(#filter10_d_4_133)">
<path d="M57.0326 12.1079C57.135 12.1126 57.2266 12.1154 57.3074 12.1165C57.3936 12.1143 57.4664 12.112 57.5257 12.1095C57.5958 12.1072 57.6578 12.1047 57.7118 12.1022C57.7927 12.0967 57.8763 12.0896 57.9627 12.0809C58.0382 12.0754 58.1164 12.0682 58.1974 12.0595C58.2838 12.0475 58.3675 12.0339 58.4485 12.0186C58.4156 12.0673 58.388 12.1094 58.366 12.1451C58.344 12.1808 58.3274 12.2117 58.3163 12.2377C58.2997 12.2669 58.2913 12.2914 58.2911 12.311C58.2854 12.3338 58.2823 12.3616 58.2819 12.3943C58.2758 12.4498 58.2746 12.5398 58.2783 12.6642C58.5605 12.5207 58.7964 12.4093 58.9861 12.33C59.1811 12.2507 59.3355 12.189 59.4493 12.1447C59.5847 12.0941 59.6902 12.0612 59.7659 12.0458C59.9655 12.0288 60.1403 12.0589 60.2901 12.1361C60.3544 12.1697 60.4158 12.2147 60.4743 12.2711C60.5329 12.3242 60.5831 12.3952 60.6251 12.4841C60.667 12.5729 60.698 12.6797 60.7179 12.8043C60.7378 12.9256 60.7386 13.0712 60.7202 13.241C60.607 13.2461 60.5045 13.2513 60.4128 13.2566C60.3265 13.262 60.2537 13.266 60.1944 13.2685C60.1243 13.2741 60.0595 13.2765 60.0003 13.2757L59.7819 13.2876C59.7063 13.2931 59.6119 13.2984 59.4987 13.3035C59.3909 13.3053 59.2588 13.3101 59.1024 13.3179C59.3302 13.2096 59.4769 13.1151 59.5427 13.0341C59.6138 12.95 59.6444 12.8801 59.6344 12.8243C59.6244 12.762 59.5766 12.7074 59.491 12.6605C59.3891 12.6232 59.2788 12.6086 59.1601 12.6169C59.0577 12.6221 58.9387 12.6483 58.8034 12.6956C58.668 12.7429 58.524 12.8326 58.3714 12.9647C58.3794 13.1742 58.3879 13.3477 58.3969 13.4852C58.4112 13.6228 58.4232 13.7342 58.4329 13.8194C58.4478 13.9178 58.4602 13.9948 58.4703 14.0506C58.4858 14.0998 58.5174 14.1526 58.5652 14.2088C58.6023 14.2551 58.6555 14.3065 58.7248 14.3631C58.7942 14.4196 58.885 14.4764 58.9975 14.5335C58.7604 14.5239 58.5665 14.5213 58.4155 14.5259C58.3239 14.5279 58.243 14.5301 58.1729 14.5325C58.0974 14.538 58.0165 14.5435 57.9302 14.5489C57.8546 14.5545 57.7656 14.5598 57.6632 14.565C57.566 14.5736 57.4581 14.5819 57.3395 14.5902C57.3831 14.5548 57.4186 14.5127 57.4462 14.464C57.4738 14.4186 57.4959 14.3747 57.5126 14.3324C57.5348 14.2836 57.5517 14.2331 57.5631 14.1809C57.5691 14.1352 57.5727 14.0665 57.5739 13.975C57.5805 13.8834 57.5792 13.7804 57.5699 13.6657C57.5661 13.5479 57.5596 13.4268 57.5505 13.3023C57.5414 13.1746 57.5295 13.0551 57.5148 12.9436C57.5001 12.8322 57.4825 12.7355 57.462 12.6534C57.4469 12.5681 57.4289 12.509 57.4077 12.476C57.3813 12.4364 57.3495 12.3967 57.3123 12.357C57.2804 12.3206 57.2405 12.2824 57.1925 12.2425C57.1446 12.1994 57.0913 12.1545 57.0326 12.1079Z" fill="#228FC2"/>
</g>
<g opacity="0.8" filter="url(#filter11_d_4_133)">
<path d="M3.12935 6.84352C6.10643 6.65513 8.70052 6.48819 10.9116 6.34268C13.1228 6.19718 14.9512 6.07701 16.3969 5.98217C18.0976 5.86786 19.5431 5.76913 20.7333 5.68599C22.0941 5.59765 23.7505 5.46324 25.7025 5.28277C27.7395 5.0958 29.904 4.89909 32.1959 4.69263C34.4873 4.4784 36.8642 4.26546 39.3266 4.0538C41.7891 3.84214 44.1684 3.66031 46.4645 3.50831C47.9952 3.40698 49.952 3.28874 52.3348 3.15359C54.7177 3.01844 57.2301 2.90077 59.872 2.80059C62.5989 2.69391 65.3282 2.61836 68.0599 2.57392C70.7915 2.52948 73.2715 2.5473 75.4999 2.6274C77.7282 2.70749 79.5778 2.86348 81.0485 3.09537C82.5192 3.32726 83.3571 3.66619 83.5621 4.11218C83.8694 4.77727 83.2371 5.45155 81.6654 6.13504C80.0937 6.81852 77.6235 7.48851 74.2549 8.145C70.9712 8.795 66.7887 9.42762 61.7075 10.0428C56.6263 10.6581 50.6876 11.2371 43.8915 11.78C38.711 12.215 33.6152 12.6396 28.6041 13.0539C26.4809 13.2318 24.23 13.4155 21.8513 13.6051C19.5576 13.7883 17.2639 13.9714 14.9702 14.1545C12.6759 14.3298 10.4662 14.4948 8.3413 14.6493C6.21634 14.8039 4.26104 14.9416 2.47539 15.0624C4.42326 14.8275 5.98875 14.6218 7.17185 14.4453C8.43992 14.2623 9.41148 14.1137 10.0865 13.9995C10.8453 13.8633 11.3923 13.7511 11.7275 13.6629C11.8909 13.5643 12.133 13.3776 12.4539 13.1027C12.6928 12.8731 13.0098 12.5477 13.4049 12.1262C13.8001 11.7048 14.2695 11.1369 14.8132 10.4224L15.5146 9.53547C15.9003 8.98957 16.0381 8.55651 15.9282 8.23628C15.9032 7.90955 15.7986 7.65933 15.6144 7.48562C15.3428 7.28728 14.9907 7.15379 14.5581 7.08513C14.2117 7.02553 13.5667 6.97311 12.623 6.92785C11.7662 6.89944 10.5679 6.87755 9.02825 6.8622C7.57299 6.83257 5.60669 6.82634 3.12935 6.84352ZM30.3519 9.08233C30.5747 9.76169 30.9979 10.2653 31.6212 10.5933C32.3289 10.907 33.072 11.124 33.8505 11.2445C34.8007 11.3753 35.8296 11.418 36.9372 11.3725C38.5517 11.2491 40.3739 11.0472 42.4038 10.7669C44.4331 10.4788 46.4148 10.1278 48.349 9.71398C50.3682 9.29363 52.1698 8.8234 53.754 8.30328C55.4232 7.77666 56.6199 7.21964 57.3443 6.63221C58.0686 6.04478 57.8205 5.59426 56.6 5.28066C55.3794 4.96706 53.7815 4.7488 51.8063 4.62588C49.8305 4.49519 47.8176 4.43776 45.7675 4.45359C43.7168 4.46164 42.1816 4.50462 41.1619 4.58255C39.9723 4.67346 38.9125 4.78575 37.9825 4.91942C37.052 5.04531 35.7447 5.27432 34.0606 5.60645C33.2192 5.7803 32.4663 5.99433 31.802 6.24854C31.2209 6.47292 30.7291 6.74915 30.3269 7.07722C29.9246 7.4053 29.8262 7.79622 30.0319 8.24999L30.3519 9.08233Z" fill="#AF4747"/>
</g>
</g>
<defs>
<filter id="filter0_d_4_133" x="217.199" y="10.1759" width="12.2145" height="11.0656" filterUnits="userSpaceOnUse" color-interpolation-filters="sRGB">
<feFlood flood-opacity="0" result="BackgroundImageFix"/>
<feColorMatrix in="SourceAlpha" type="matrix" values="0 0 0 0 0 0 0 0 0 0 0 0 0 0 0 0 0 0 127 0" result="hardAlpha"/>
<feOffset dy="4"/>
<feGaussianBlur stdDeviation="2"/>
<feComposite in2="hardAlpha" operator="out"/>
<feColorMatrix type="matrix" values="0 0 0 0 0.727564 0 0 0 0 0.536345 0 0 0 0 0.536345 0 0 0 0.25 0"/>
<feBlend mode="normal" in2="BackgroundImageFix" result="effect1_dropShadow_4_133"/>
<feBlend mode="normal" in="SourceGraphic" in2="effect1_dropShadow_4_133" result="shape"/>
</filter>
<filter id="filter1_d_4_133" x="212.198" y="10.1746" width="12.8785" height="11.1009" filterUnits="userSpaceOnUse" color-interpolation-filters="sRGB">
<feFlood flood-opacity="0" result="BackgroundImageFix"/>
<feColorMatrix in="SourceAlpha" type="matrix" values="0 0 0 0 0 0 0 0 0 0 0 0 0 0 0 0 0 0 127 0" result="hardAlpha"/>
<feOffset dy="4"/>
<feGaussianBlur stdDeviation="2"/>
<feComposite in2="hardAlpha" operator="out"/>
<feColorMatrix type="matrix" values="0 0 0 0 0.727564 0 0 0 0 0.536345 0 0 0 0 0.536345 0 0 0 0.25 0"/>
<feBlend mode="normal" in2="BackgroundImageFix" result="effect1_dropShadow_4_133"/>
<feBlend mode="normal" in="SourceGraphic" in2="effect1_dropShadow_4_133" result="shape"/>
</filter>
<filter id="filter2_d_4_133" x="208.188" y="10.1675" width="11.6661" height="10.7332" filterUnits="userSpaceOnUse" color-interpolation-filters="sRGB">
<feFlood flood-opacity="0" result="BackgroundImageFix"/>
<feColorMatrix in="SourceAlpha" type="matrix" values="0 0 0 0 0 0 0 0 0 0 0 0 0 0 0 0 0 0 127 0" result="hardAlpha"/>
<feOffset dy="4"/>
<feGaussianBlur stdDeviation="2"/>
<feComposite in2="hardAlpha" operator="out"/>
<feColorMatrix type="matrix" values="0 0 0 0 0.727564 0 0 0 0 0.536345 0 0 0 0 0.536345 0 0 0 0.25 0"/>
<feBlend mode="normal" in2="BackgroundImageFix" result="effect1_dropShadow_4_133"/>
<feBlend mode="normal" in="SourceGraphic" in2="effect1_dropShadow_4_133" result="shape"/>
</filter>
<filter id="filter3_d_4_133" x="149" y="0.242598" width="67.0004" height="16.8021" filterUnits="userSpaceOnUse" color-interpolation-filters="sRGB">
<feFlood flood-opacity="0" result="BackgroundImageFix"/>
<feColorMatrix in="SourceAlpha" type="matrix" values="0 0 0 0 0 0 0 0 0 0 0 0 0 0 0 0 0 0 127 0" result="hardAlpha"/>
<feOffset dx="1" dy="-1"/>
<feComposite in2="hardAlpha" operator="out"/>
<feColorMatrix type="matrix" values="0 0 0 0 0.131749 0 0 0 0 0.561886 0 0 0 0 0.761218 0 0 0 1 0"/>
<feBlend mode="normal" in2="BackgroundImageFix" result="effect1_dropShadow_4_133"/>
<feBlend mode="normal" in="SourceGraphic" in2="effect1_dropShadow_4_133" result="shape"/>
</filter>
<filter id="filter4_d_4_133" x="143.198" y="3.17708" width="12.3278" height="12.3405" filterUnits="userSpaceOnUse" color-interpolation-filters="sRGB">
<feFlood flood-opacity="0" result="BackgroundImageFix"/>
<feColorMatrix in="SourceAlpha" type="matrix" values="0 0 0 0 0 0 0 0 0 0 0 0 0 0 0 0 0 0 127 0" result="hardAlpha"/>
<feOffset dy="4"/>
<feGaussianBlur stdDeviation="2"/>
<feComposite in2="hardAlpha" operator="out"/>
<feColorMatrix type="matrix" values="0 0 0 0 0.727564 0 0 0 0 0.536345 0 0 0 0 0.536345 0 0 0 0.25 0"/>
<feBlend mode="normal" in2="BackgroundImageFix" result="effect1_dropShadow_4_133"/>
<feBlend mode="normal" in="SourceGraphic" in2="effect1_dropShadow_4_133" result="shape"/>
</filter>
<filter id="filter5_d_4_133" x="137.206" y="5.17888" width="11.9516" height="10.3761" filterUnits="userSpaceOnUse" color-interpolation-filters="sRGB">
<feFlood flood-opacity="0" result="BackgroundImageFix"/>
<feColorMatrix in="SourceAlpha" type="matrix" values="0 0 0 0 0 0 0 0 0 0 0 0 0 0 0 0 0 0 127 0" result="hardAlpha"/>
<feOffset dy="4"/>
<feGaussianBlur stdDeviation="2"/>
<feComposite in2="hardAlpha" operator="out"/>
<feColorMatrix type="matrix" values="0 0 0 0 0.727564 0 0 0 0 0.536345 0 0 0 0 0.536345 0 0 0 0.25 0"/>
<feBlend mode="normal" in2="BackgroundImageFix" result="effect1_dropShadow_4_133"/>
<feBlend mode="normal" in="SourceGraphic" in2="effect1_dropShadow_4_133" result="shape"/>
</filter>
<filter id="filter6_d_4_133" x="78.1369" y="1.46371" width="77.0716" height="14.3348" filterUnits="userSpaceOnUse" color-interpolation-filters="sRGB">
<feFlood flood-opacity="0" result="BackgroundImageFix"/>
<feColorMatrix in="SourceAlpha" type="matrix" values="0 0 0 0 0 0 0 0 0 0 0 0 0 0 0 0 0 0 127 0" result="hardAlpha"/>
<feOffset dx="1" dy="-1"/>
<feComposite in2="hardAlpha" operator="out"/>
<feColorMatrix type="matrix" values="0 0 0 0 0.131749 0 0 0 0 0.561886 0 0 0 0 0.761218 0 0 0 1 0"/>
<feBlend mode="normal" in2="BackgroundImageFix" result="effect1_dropShadow_4_133"/>
<feBlend mode="normal" in="SourceGraphic" in2="effect1_dropShadow_4_133" result="shape"/>
</filter>
<filter id="filter7_d_4_133" x="68.0336" y="12.0164" width="14.8685" height="10.7973" filterUnits="userSpaceOnUse" color-interpolation-filters="sRGB">
<feFlood flood-opacity="0" result="BackgroundImageFix"/>
<feColorMatrix in="SourceAlpha" type="matrix" values="0 0 0 0 0 0 0 0 0 0 0 0 0 0 0 0 0 0 127 0" result="hardAlpha"/>
<feOffset dy="4"/>
<feGaussianBlur stdDeviation="2"/>
<feComposite in2="hardAlpha" operator="out"/>
<feColorMatrix type="matrix" values="0 0 0 0 0.727564 0 0 0 0 0.536345 0 0 0 0 0.536345 0 0 0 0.25 0"/>
<feBlend mode="normal" in2="BackgroundImageFix" result="effect1_dropShadow_4_133"/>
<feBlend mode="normal" in="SourceGraphic" in2="effect1_dropShadow_4_133" result="shape"/>
</filter>
<filter id="filter8_d_4_133" x="63.0111" y="12.0265" width="12.591" height="11.0668" filterUnits="userSpaceOnUse" color-interpolation-filters="sRGB">
<feFlood flood-opacity="0" result="BackgroundImageFix"/>
<feColorMatrix in="SourceAlpha" type="matrix" values="0 0 0 0 0 0 0 0 0 0 0 0 0 0 0 0 0 0 127 0" result="hardAlpha"/>
<feOffset dy="4"/>
<feGaussianBlur stdDeviation="2"/>
<feComposite in2="hardAlpha" operator="out"/>
<feColorMatrix type="matrix" values="0 0 0 0 0.727564 0 0 0 0 0.536345 0 0 0 0 0.536345 0 0 0 0.25 0"/>
<feBlend mode="normal" in2="BackgroundImageFix" result="effect1_dropShadow_4_133"/>
<feBlend mode="normal" in="SourceGraphic" in2="effect1_dropShadow_4_133" result="shape"/>
</filter>
<filter id="filter9_d_4_133" x="57.0214" y="12.0365" width="13.2312" height="11.073" filterUnits="userSpaceOnUse" color-interpolation-filters="sRGB">
<feFlood flood-opacity="0" result="BackgroundImageFix"/>
<feColorMatrix in="SourceAlpha" type="matrix" values="0 0 0 0 0 0 0 0 0 0 0 0 0 0 0 0 0 0 127 0" result="hardAlpha"/>
<feOffset dy="4"/>
<feGaussianBlur stdDeviation="2"/>
<feComposite in2="hardAlpha" operator="out"/>
<feColorMatrix type="matrix" values="0 0 0 0 0.727564 0 0 0 0 0.536345 0 0 0 0 0.536345 0 0 0 0.25 0"/>
<feBlend mode="normal" in2="BackgroundImageFix" result="effect1_dropShadow_4_133"/>
<feBlend mode="normal" in="SourceGraphic" in2="effect1_dropShadow_4_133" result="shape"/>
</filter>
<filter id="filter10_d_4_133" x="53.0326" y="12.0186" width="11.7008" height="10.5716" filterUnits="userSpaceOnUse" color-interpolation-filters="sRGB">
<feFlood flood-opacity="0" result="BackgroundImageFix"/>
<feColorMatrix in="SourceAlpha" type="matrix" values="0 0 0 0 0 0 0 0 0 0 0 0 0 0 0 0 0 0 127 0" result="hardAlpha"/>
<feOffset dy="4"/>
<feGaussianBlur stdDeviation="2"/>
<feComposite in2="hardAlpha" operator="out"/>
<feColorMatrix type="matrix" values="0 0 0 0 0.727564 0 0 0 0 0.536345 0 0 0 0 0.536345 0 0 0 0.25 0"/>
<feBlend mode="normal" in2="BackgroundImageFix" result="effect1_dropShadow_4_133"/>
<feBlend mode="normal" in="SourceGraphic" in2="effect1_dropShadow_4_133" result="shape"/>
</filter>
<filter id="filter11_d_4_133" x="2.4754" y="1.55013" width="82.1621" height="13.5123" filterUnits="userSpaceOnUse" color-interpolation-filters="sRGB">
<feFlood flood-opacity="0" result="BackgroundImageFix"/>
<feColorMatrix in="SourceAlpha" type="matrix" values="0 0 0 0 0 0 0 0 0 0 0 0 0 0 0 0 0 0 127 0" result="hardAlpha"/>
<feOffset dx="1" dy="-1"/>
<feComposite in2="hardAlpha" operator="out"/>
<feColorMatrix type="matrix" values="0 0 0 0 0.131749 0 0 0 0 0.561886 0 0 0 0 0.761218 0 0 0 1 0"/>
<feBlend mode="normal" in2="BackgroundImageFix" result="effect1_dropShadow_4_133"/>
<feBlend mode="normal" in="SourceGraphic" in2="effect1_dropShadow_4_133" result="shape"/>
</filter>
<clipPath id="clip0_4_133">
<rect width="228" height="18" rx="9" fill="white"/>
</clipPath>
</defs>
</svg>
